<svg width="41" height="40" viewBox="0 0 41 40" fill="none" xmlns="http://www.w3.org/2000/svg">
    <path d="M37.5389 0C38.4156 0 39.2135 0.433858 39.5867 1.11364C39.96 1.79349 39.8412 2.59694 39.2822 3.17576L25.9783 16.9514C25.2768 17.6778 25.2269 18.8133 25.8619 19.5985L39.737 36.754C40.2079 37.3481 40.1292 38.3335 39.737 38.9682C39.3447 39.6029 38.5751 40 37.7369 40H27.0439C26.2863 40 25.1694 39.5088 24.7498 38.9682L16.1712 27.5837C15.7357 27.0058 14.8861 26.9557 14.3859 27.4785C13.7588 28.1339 13.4088 29.0059 13.4088 29.9129V37.5C13.4088 38.5711 12.3956 40 11.1457 40H2.26308C1.01322 40 0 38.5711 0 37.5V29.6527C0 28.4086 0.463741 27.2093 1.30065 26.2889L13.4088 12.9727V12.9928L25.122 0.712121L25.2051 0.629924C25.6324 0.229882 26.2374 0 26.8741 0H37.5389Z"
          fill="url(#paint0_linear_11_113)"/>
    <path fill-rule="evenodd" clip-rule="evenodd"
          d="M11.1457 0C12.3956 0 13.4088 0.868296 13.4088 1.93939V6.97753C13.4088 8.27479 12.9046 9.52127 12.0027 10.4537L3.43756 19.3089C2.18759 20.6012 0 19.7213 0 17.9234C0 11.9686 0 2.6634 0 1.93939C0 0.868296 1.01322 0 2.26308 0C5.73196 0 11.1457 0 11.1457 0Z"
          fill="url(#paint1_linear_11_113)"/>
    <defs>
        <linearGradient id="paint0_linear_11_113" x1="19.9151" y1="0" x2="19.9151" y2="39.9515"
                        gradientUnits="userSpaceOnUse">
            <stop stop-color="#7EF542"/>
            <stop offset="1" stop-color="#5F19B8"/>
        </linearGradient>
        <linearGradient id="paint1_linear_11_113" x1="19.9151" y1="0" x2="19.9151" y2="39.9515"
                        gradientUnits="userSpaceOnUse">
            <stop stop-color="#7EF542"/>
            <stop offset="1" stop-color="#5F19B8"/>
        </linearGradient>
    </defs>
</svg>
