<svg width="800" height="600" xmlns="http://www.w3.org/2000/svg">
 <!-- Created with Method Draw - http://github.com/duopixel/Method-Draw/ -->
 <g>
  <title>background</title>
  <rect fill="#fff" id="canvas_background" height="602" width="802" y="-1" x="-1"/>
  <g display="none" overflow="visible" y="0" x="0" height="100%" width="100%" id="canvasGrid">
   <rect fill="url(#gridpattern)" stroke-width="0" y="0" x="0" height="100%" width="100%"/>
  </g>
 </g>
 <g>
  <title>Layer 1</title>
  <rect stroke="#000" id="svg_2" height="600" width="800" y="0" x="0" stroke-width="1.5" fill="#021342"/>
  <ellipse stroke="#000" ry="324" rx="323.99999" id="svg_3" cy="-191.04688" cx="108.99999" stroke-opacity="null" stroke-width="0" fill="#9ee88a"/>
  <path stroke="#000" id="svg_7" d="m424.8758,831.60005l0,0c0,-192.95444 160.05823,-349.37495 357.50001,-349.37495l0,0c94.81486,0 185.74642,36.80902 252.79063,102.32953c67.04428,65.52053 104.70938,154.38539 104.70938,247.04542l0,0c0,192.95441 -160.05823,349.37495 -357.50001,349.37495l0,0c-197.44176,0 -357.50001,-156.42053 -357.50001,-349.37495zm178.75001,0l0,0c0,96.47719 80.02916,174.68747 178.75001,174.68747c98.72092,0 178.75001,-78.21028 178.75001,-174.68747c0,-96.47719 -80.02914,-174.68747 -178.75001,-174.68747l0,0c-98.72084,0 -178.75001,78.2103 -178.75001,174.68747z" stroke-opacity="null" stroke-width="0" fill="#8070ff"/>
  <path id="svg_9" d="m194,203.54454l0,0l0,-0.03343l0,0.03343zm0.01672,-0.03343l96.47213,96.50562l-96.48885,96.47218l35.47286,35.48959l131.9617,-131.97849l-131.9617,-131.97849l-35.45614,35.48959zm170.94507,226.06019l241.03823,0l0,-50.13344l-241.03823,0l0,50.13344zm72.46694,-104.47949l168.5713,0l0,-50.13344l-168.5713,0l0,50.13344zm-72.46694,-154.62965l0,50.16687l241.03823,0l0,-50.16687l-241.03823,0z" stroke-width="0" stroke="#000" fill="#ff007e"/>
 </g>
</svg>