<svg version="1.0" xmlns="http://www.w3.org/2000/svg"
     width="1350.000000pt" height="756.000000pt" viewBox="0 0 1350.000000 756.000000"
     preserveAspectRatio="xMidYMid meet">
    <g transform="translate(0.000000,756.000000) scale(0.100000,-0.100000)"
       fill="url(#paint0_linear)" stroke="none">
        <path d="M5247 5732 c-9 -2 -17 -8 -17 -13 0 -5 -14 -9 -30 -9 -18 0 -33 -6
-36 -15 -4 -8 -10 -15 -14 -15 -31 0 -140 -109 -140 -140 0 -5 -4 -10 -10 -10
-5 0 -13 -12 -16 -27 -4 -16 -12 -39 -19 -53 -10 -19 -14 -256 -16 -1041 -4
-1005 -4 -1017 16 -1039 49 -55 191 13 316 152 37 40 77 85 90 99 37 40 180
198 224 248 22 25 45 50 51 56 40 38 227 250 259 295 51 70 69 108 90 194 17
63 18 109 12 510 -6 476 -12 526 -63 608 -13 21 -24 40 -24 43 0 15 -100 98
-140 117 -25 11 -54 25 -65 32 -18 10 -419 17 -468 8z"/>
        <path d="M7729 5724 c-13 -7 -32 -13 -42 -14 -9 0 -32 -8 -50 -18 -62 -35
-137 -84 -137 -90 0 -8 -31 -43 -163 -186 -56 -61 -127 -137 -157 -170 -50
-55 -79 -86 -193 -209 -20 -21 -69 -75 -109 -120 -78 -87 -187 -205 -228 -248
-14 -15 -52 -58 -85 -95 -33 -38 -90 -100 -126 -139 -36 -38 -92 -99 -124
-135 -53 -60 -230 -253 -265 -290 -8 -9 -33 -36 -54 -60 -42 -48 -195 -216
-236 -260 -14 -14 -43 -46 -64 -71 -22 -24 -76 -84 -120 -133 -45 -49 -92
-101 -105 -115 -12 -14 -55 -62 -95 -105 -39 -43 -78 -87 -86 -96 -8 -9 -54
-59 -101 -111 -200 -218 -216 -239 -233 -294 -15 -46 -17 -95 -14 -367 2 -203
7 -320 14 -333 6 -11 22 -42 35 -68 35 -70 105 -139 179 -175 54 -27 83 -34
170 -41 117 -9 272 -8 339 4 104 17 207 87 266 179 61 96 65 127 65 498 0 409
-22 344 204 593 145 159 175 185 211 185 19 0 42 -9 57 -22 14 -13 110 -129
213 -258 103 -129 195 -244 204 -255 9 -11 34 -42 56 -70 22 -27 42 -52 45
-55 3 -3 30 -36 60 -75 30 -38 62 -79 72 -90 16 -19 76 -94 101 -125 7 -8 44
-55 82 -105 38 -49 72 -92 75 -95 3 -3 30 -36 60 -75 75 -97 127 -145 199
-182 93 -49 148 -55 516 -51 327 3 330 3 378 27 52 27 101 75 112 112 4 13 12
30 18 37 22 27 12 133 -17 195 -15 31 -33 63 -39 70 -7 6 -24 26 -37 43 -84
105 -145 180 -150 184 -3 3 -77 95 -165 205 -88 110 -182 227 -210 261 -27 34
-66 80 -84 104 -19 23 -40 48 -46 54 -5 6 -35 43 -65 81 -30 39 -57 72 -60 75
-3 3 -24 27 -45 55 -22 27 -75 92 -119 145 -100 122 -101 122 -166 205 -30 39
-57 72 -60 75 -12 11 -76 96 -87 117 -21 37 -15 85 15 124 23 30 107 122 292
320 19 20 60 66 91 101 31 34 67 75 80 89 13 14 60 65 104 113 44 49 89 98
100 110 11 12 34 39 51 59 17 20 74 83 126 139 52 57 115 126 138 153 41 48
153 170 251 276 74 79 111 176 91 233 -7 18 -12 41 -12 52 0 27 -76 101 -128
125 -40 19 -64 20 -406 18 -278 -2 -370 -5 -387 -15z"/>
    </g>
    <defs>
        <linearGradient id="paint0_linear" x1="40.94192" y1="60.89955" x2="70.7772" y2="9.7345"
                        gradientUnits="userSpaceOnUse">
            <stop offset="0.15937" stop-color="#3BEA62"/>
            <stop offset="0.5404" stop-color="#3C99CC"/>
            <stop offset="0.93739" stop-color="#6B57FF"/>
        </linearGradient>
    </defs>
</svg>
